# AST/ASF file generated using VICON BodyLanguage
# -----------------------------------------------
:version 1.10
:name VICON
:units
  mass 1.0
  length 0.45
  angle deg
:documentation
   .ast/.asf automatically generated from VICON data using
   VICON BodyBuilder and BodyLanguage model FoxedUp or BRILLIANT.MOD
:root
   order TX TY TZ RX RY RZ
   axis XYZ
   position 0 0 0  
   orientation 0 0 0 
:bonedata
  begin
     id 1 
     name lhipjoint
     direction 0.630082 -0.636569 0.44472 
     length 2.82754 
     axis 0 0 0  XYZ
  end
  begin
     id 2 
     name lfemur
     direction 0.34202 -0.939693 0  
     length 7.26371  
     axis 0 0 20  XYZ
    dof rx ry rz
    limits (-160.0 20.0)
           (-70.0 70.0)
           (-60.0 70.0)
  end
  begin
     id 3 
     name ltibia
     direction 0.34202 -0.939693 0   
     length 7.88616   
     axis 0 0 20   XYZ
    dof rx
    limits (-10.0 170.0)
  end
  begin
     id 4 
     name lfoot
     direction 0.0603448 -0.165796 0.984312   
     length 1.77861   
     axis -90 7.62852e-016 20   XYZ
    dof rx rz
    limits (-45.0 90.0)
           (-70.0 20.0)
  end
  begin
     id 5 
     name ltoes
     direction 1.53577e-011 -4.21876e-011 1   
     length 0.902235   
     axis -90 7.62852e-016 20   XYZ
    dof rx
    limits (-90.0 20.0)
  end
  begin
     id 6 
     name rhipjoint
     direction -0.656778 -0.61817 0.431866   
     length 2.9117  
     axis 0 0 0  XYZ 
  end
  begin
     id 7 
     name rfemur
     direction -0.34202 -0.939693 0   
     length 6.81603   
     axis 0 0 -20   XYZ
    dof rx ry rz
    limits (-160.0 20.0)
           (-70.0 70.0)
           (-70.0 60.0)
  end
  begin
     id 8 
     name rtibia
     direction -0.34202 -0.939693 0   
     length 8.05997   
     axis 0 0 -20   XYZ
    dof rx
    limits (-10.0 170.0)
 end
 begin
     id 9 
     name rfoot
     direction -0.0862404 -0.236944 0.967688   
     length 1.84899  
     axis -90 -7.62852e-016 -20   XYZ
    dof rx rz
    limits (-45.0 90.0)
           (-20.0 70.0)
  end
  begin
     id 10 
     name rtoes
     direction -1.53561e-011 -4.21798e-011 1   
     length 0.931579   
     axis -90 -7.62852e-016 -20   XYZ
    dof rx
    limits (-90.0 20.0)
  end
  begin
     id 11 
     name lowerback
     direction -0.0110203 0.991769 -0.127564   
     length 2.05686   
     axis 0 0 0   XYZ
    dof rx ry rz
    limits (-20.0 45.0)
           (-30.0 30.0)
           (-30.0 30.0)
  end
  begin
     id 12 
     name upperback
     direction 0.0109719 0.99993 -0.00432479   
     length 2.06234   
     axis 0 0 0   XYZ
    dof rx ry rz
    limits (-20.0 45.0)
           (-30.0 30.0)
           (-30.0 30.0)
  end
  begin
     id 13 
     name thorax
     direction 0.0173308 0.998351 0.0547306   
     length 2.09856   
     axis 0 0 0   XYZ
    dof rx ry rz
    limits (-20.0 45.0)
           (-30.0 30.0)
           (-30.0 30.0)
  end
  begin
     id 14 
     name lowerneck
     direction -0.0311736 0.989033 0.144366   
     length 1.98151   
     axis 0 0 0   XYZ
    dof rx ry rz
    limits (-20.0 45.0)
           (-30.0 30.0)
           (-30.0 30.0)
  end
  begin
     id 15 
     name upperneck
     direction 0.0421057 0.975772 -0.214698   
     length 2.01457   
     axis 0 0 0   XYZ
    dof rx ry rz
    limits (-20.0 45.0)
           (-30.0 30.0)
           (-30.0 30.0)
  end
  begin
     id 16
     name head
     direction 0.0136911 0.995958 -0.0887718  
     length 2.03562  
     axis 0 0 0   XYZ
    dof rx ry rz
    limits (-20.0 45.0)
           (-30.0 30.0)
           (-30.0 30.0)
  end
  begin
     id 17 
     name lclavicle
     direction 0.915335 0.396201 0.0720134  
     length 4.16217  
     axis 0 0 0   XYZ
    dof ry rz
    limits (-20.0 10.0)
           (0.0 20.0)
  end
  begin
     id 18 
     name lhumerus
     direction 1 -4.48965e-011 6.383e-018   
     length 4.93042   
     axis -180 -30 -90   XYZ
    dof rx ry rz
    limits (-60.0 90.0)
           (-90.0 90.0)
           (-90.0 90.0)
  end
  begin
     id 19
     name lradius
     direction 1 -4.48972e-011 8.8689e-027   
     length 3.68177   
     axis -180 -30 -90   XYZ
    dof rx
    limits (-10.0 170.0)
  end
  begin
     id 20
     name lwrist
     direction 1 -4.48953e-011 1.17971e-026   
     length 1.84089   
     axis -7.69454e-015 90 90   XYZ
    dof ry
    limits (-180.0 0.0)
 end
  begin
     id 21 
     name lhand
     direction 1 -4.49027e-011 2.35802e-026   
     length 0.721479   
     axis -1.50533e-014 90 90   XYZ
    dof rx rz
    limits (-90.0 90.0)
           (-45.0 45.0)
  end
  begin
     id 22 
     name lfingers
     direction 1 -4.48915e-011 4.72027e-026   
     length 0.581675   
     axis -3.01059e-014 90 90   XYZ
    dof rx
    limits (0.0 90.0)
  end
  begin
     id 23
     name lthumb
     direction 0.707107 -6.34948e-011 0.707107   
     length 0.835172   
     axis -90 45 -5.12164e-014   XYZ
    dof rx rz
    limits (-45.0 45.0)
           (-45.0 45.0)
  end
  begin
     id 24 
     name rclavicle
     direction -0.882781 0.469197 0.0234974   
     length 3.95647  
     axis 0 0 0   XYZ 
    dof ry rz
    limits (-10.0 20.0)
           (-20.0 0.0)
  end
  begin
     id 25 
     name rhumerus
     direction -1 -4.48965e-011 -1.54906e-018  
     length 5.07905   
     axis -180 30 90   XYZ
    dof rx ry rz
    limits (-90.0 60.0)
           (-90.0 90.0)
           (-90.0 90.0)
  end
  begin
     id 26 
     name rradius
     direction -1 -4.48972e-011 5.47489e-027   
     length 3.54394   
     axis -180 30 90   XYZ
    dof rx
    limits (-10.0 170.0)
  end
  begin
     id 27 
     name rwrist
     direction -1 -4.48955e-011 1.17969e-026   
     length 1.77197   
     axis -7.69454e-015 -90 -90   XYZ
    dof ry
    limits (-180.0 0.0)
  end
  begin
     id 28
     name rhand
     direction -1 -4.48982e-011 2.35888e-026   
     length 0.681156   
     axis -1.50533e-014 -90 -90   XYZ
    dof rx rz
    limits (-90.0 90.0)
           (-45.0 45.0)
  end
  begin
     id 29
     name rfingers
     direction -1 -4.48955e-011 4.71877e-026   
     length 0.549165   
     axis -3.01059e-014 -90 -90   XYZ
    dof rx
    limits (0.0 90.0)
  end
  begin
     id 30
     name rthumb
     direction -0.707107 -6.3491e-011 0.707107   
     length 0.788495   
     axis -90 -45 5.12164e-014   XYZ
    dof rx rz
    limits (-45.0 45.0)
           (-45.0 45.0)
  end
:hierarchy
  begin
    root lhipjoint rhipjoint lowerback
    lhipjoint lfemur
    lfemur ltibia
    ltibia lfoot
    lfoot ltoes
    rhipjoint rfemur
    rfemur rtibia
    rtibia rfoot
    rfoot rtoes
    lowerback upperback
    upperback thorax
    thorax lowerneck lclavicle rclavicle
    lowerneck upperneck
    upperneck head
    lclavicle lhumerus
    lhumerus lradius
    lradius lwrist
    lwrist lhand lthumb
    lhand lfingers
    rclavicle rhumerus
    rhumerus rradius
    rradius rwrist
    rwrist rhand rthumb
    rhand rfingers
  end

#!OML:ASF H:\Bending\Project 1\Capture day 1\Session 1\Subject.ASF
:FULLY-SPECIFIED
:DEGREES
193
root -9.47008 17.9393 -16.36 235.571 88.1585 232.985
lowerback 2.14346 0.484776 0.849649
upperback -3.09043 0.855105 2.82377
thorax -4.42312 0.474154 2.3893
lowerneck -26.8225 -4.08161 -6.26483
upperneck 29.8554 -4.17438 3.65547
head 15.1525 -1.83299 1.7598
rclavicle -1.98785e-015 -1.74931e-014
rhumerus -25.2195 16.2793 -90.0216
rradius 93.5532
rwrist 4.98508
rhand -31.3295 -42.2068
rfingers 7.12502
rthumb -4.60128 -72.1368
lclavicle -1.98785e-015 -1.74931e-014
lhumerus -24.4416 -30.6059 98.5799
lradius 88.6371
lwrist 49.57
lhand -39.2229 13.828
lfingers 7.12502
lthumb -12.2186 43.4511
rfemur 7.31293 -1.44701 15.4467
rtibia 1.59028e-015
rfoot -11.0507 -17.6382
rtoes 8.67789
lfemur -6.59507 -13.8662 -11.5559
ltibia 22.6085
lfoot -21.0275 8.34151
ltoes -12.7364
194
root -9.47466 17.9415 -16.3568 238.93 88.2255 236.28
lowerback 2.15792 0.589791 0.84738
upperback -3.13207 0.998328 2.82748
thorax -4.48013 0.546311 2.38574
lowerneck -26.8183 -4.08886 -6.25377
upperneck 29.6928 -4.27615 3.88899
head 15.0901 -1.84027 1.83242
rclavicle -7.45443e-015 -2.38542e-015
rhumerus -24.0828 16.0352 -89.7492
rradius 93.4621
rwrist 5.47158
rhand -31.0984 -42.286
rfingers 7.12502
rthumb -4.37817 -72.2208
lclavicle -7.45443e-015 -2.38542e-015
lhumerus -23.0572 -30.8386 97.9614
lradius 88.0757
lwrist 49.6923
lhand -39.0905 14.2318
lfingers 7.12502
lthumb -12.091 43.8625
rfemur 7.1739 -1.32845 15.4845
rtibia -1.11319e-014
rfoot -10.8852 -17.7172
rtoes 7.92511
lfemur -6.69665 -13.6609 -11.5103
ltibia 22.6641
lfoot -20.9483 8.33036
ltoes -13.0661
195
root -9.478 17.9441 -16.3532 242.237 88.2053 239.508
lowerback 2.15328 0.719282 0.998829
upperback -3.18583 1.18055 2.80846
thorax -4.5368 0.632452 2.2698
lowerneck -26.7638 -4.18758 -6.39319
upperneck 29.5407 -4.48051 4.22031
head 15.0375 -1.89375 1.95053
rclavicle 4.72114e-015 3.49861e-014
rhumerus -22.9618 15.6386 -89.4122
rradius 93.2333
rwrist 5.76449
rhand -30.929 -42.4027
rfingers 7.12502
rthumb -4.21458 -72.3408
lclavicle 4.72114e-015 3.49861e-014
lhumerus -21.7812 -31.2671 97.414
lradius 87.51
lwrist 49.837
lhand -39.0393 14.6249
lfingers 7.12502
lthumb -12.0416 44.2585
rfemur 7.03087 -1.25681 15.6013
rtibia 0
rfoot -10.7012 -17.8129
rtoes 7.17147
lfemur -6.85066 -13.4627 -11.3827
ltibia 22.7622
lfoot -20.8484 8.34154
ltoes -13.841
196
root -9.47886 17.9472 -16.349 244.564 88.129 241.751
lowerback 2.12779 0.879837 1.26362
upperback -3.24461 1.40841 2.76944
thorax -4.58398 0.73696 2.06686
lowerneck -26.6664 -4.38456 -6.69428
upperneck 29.3954 -4.77856 4.61076
head 14.9949 -1.99707 2.10135
rclavicle -1.87852e-014 -1.74931e-014
rhumerus -21.9022 15.1177 -88.9695
rradius 92.9185
rwrist 5.82175
rhand -30.8347 -42.5759
rfingers 7.12502
rthumb -4.12347 -72.5158
lclavicle -1.87852e-014 -1.74931e-014
lhumerus -20.64 -31.8692 96.9984
lradius 86.9743
lwrist 50.0219
lhand -39.1345 14.8661
lfingers 7.12502
lthumb -12.1334 44.4942
rfemur 6.90282 -1.23285 15.7529
rtibia 3.49861e-014
rfoot -10.5356 -17.9042
rtoes 6.57783
lfemur -7.02189 -13.2935 -11.2178
ltibia 22.8719
lfoot -20.7461 8.36838
ltoes -14.8271
197
root -9.47672 17.9505 -16.3444 245.646 88.0517 242.756
lowerback 2.08756 1.05928 1.55712
upperback -3.30234 1.66168 2.71783
thorax -4.61881 0.852574 1.83366
lowerneck -26.5544 -4.64227 -7.08687
upperneck 29.2746 -5.1153 4.97292
head 14.9688 -2.13184 2.2479
rclavicle 1.41137e-014 -3.26007e-014
rhumerus -20.9376 14.559 -88.4323
rradius 92.559
rwrist 5.67119
rhand -30.8171 -42.7804
rfingers 7.12502
rthumb -4.10649 -72.7205
lclavicle 1.41137e-014 -3.26007e-014
lhumerus -19.6449 -32.5474 96.7286
lradius 86.4898
lwrist 50.2306
lhand -39.3728 14.8791
lfingers 7.12502
lthumb -12.3631 44.4935
rfemur 6.80316 -1.24035 15.8776
rtibia -3.18055e-014
rfoot -10.4214 -17.9709
rtoes 6.27115
lfemur -7.16472 -13.175 -11.0799
ltibia 22.9517
lfoot -20.663 8.41101
ltoes -15.7234
198
root -9.47197 17.9538 -16.3398 245.77 88.0213 242.818
lowerback 2.04206 1.22734 1.78755
upperback -3.35451 1.89599 2.66455
thorax -4.64354 0.960555 1.63572
lowerneck -26.4773 -4.89145 -7.44145
upperneck 29.2135 -5.40872 5.20349
head 14.9706 -2.26312 2.34243
rclavicle 1.76421e-014 7.15625e-015
rhumerus -20.0777 14.077 -87.8694
rradius 92.1809
rwrist 5.4016
rhand -30.8575 -42.9587
rfingers 7.12502
rthumb -4.14552 -72.8981
lclavicle 1.76421e-014 7.15625e-015
lhumerus -18.7901 -33.1507 96.5647
lradius 86.0657
lwrist 50.4236
lhand -39.6717 14.6772
lfingers 7.12502
lthumb -12.6513 44.274
rfemur 6.73463 -1.25522 15.9275
rtibia 1.59028e-015
rfoot -10.373 -18.0029
rtoes 6.29078
lfemur -7.24267 -13.1214 -11.0205
ltibia 22.9664
lfoot -20.6142 8.47687
ltoes -16.308
199
root -9.46563 17.9571 -16.3356 245.335 88.0557 242.335
lowerback 1.99791 1.34542 1.89365
upperback -3.39809 2.05754 2.62116
thorax -4.66146 1.03659 1.52234
lowerneck -26.4856 -5.05921 -7.62639
upperneck 29.2411 -5.58309 5.23324
head 15.0081 -2.35317 2.34976
rclavicle -1.31695e-014 -4.29375e-014
rhumerus -19.3039 13.7721 -87.3821
rradius 91.7963
rwrist 5.13105
rhand -30.921 -43.0535
rfingers 7.12502
rthumb -4.20685 -72.9917
lclavicle -1.31695e-014 -4.29375e-014
lhumerus -18.0544 -33.5233 96.4305
lradius 85.7007
lwrist 50.5545
lhand -39.909 14.3508
lfingers 7.12502
lthumb -12.88 43.9333
rfemur 6.68919 -1.25947 15.8914
rtibia -7.95139e-015
rfoot -10.381 -18.0029
rtoes 6.57956
lfemur -7.24483 -13.1311 -11.0532
ltibia 22.9013
lfoot -20.5988 8.57246
ltoes -16.5376
200
root -9.45897 17.9604 -16.3318 244.571 88.1372 241.53
lowerback 1.9557 1.38117 1.86445
upperback -3.43187 2.10309 2.59658
thorax -4.67337 1.05991 1.51123
lowerneck -26.6 -5.09794 -7.56905
upperneck 29.3527 -5.5995 5.06394
head 15.0758 -2.3767 2.26627
rclavicle 2.48481e-016 5.56597e-015
rhumerus -18.5773 13.698 -87.0613
rradius 91.4059
rwrist 4.96634
rhand -30.9719 -43.0393
rfingers 7.12502
rthumb -4.25597 -72.9765
lclavicle 2.48481e-016 5.56597e-015
lhumerus -17.4077 -33.5584 96.2521
lradius 85.3848
lwrist 50.587
lhand -39.9846 14.0204
lfingers 7.12502
lthumb -12.9529 43.5984
rfemur 6.65317 -1.25229 15.7963
rtibia -9.54166e-015
rfoot -10.4197 -17.984
rtoes 7.0174
lfemur -7.191 -13.184 -11.1503
ltibia 22.7676
lfoot -20.5979 8.69446
ltoes -16.5586
201
root -9.45295 17.9637 -16.3286 243.447 88.2245 240.362
lowerback 1.91175 1.32143 1.73461
upperback -3.45708 2.01695 2.59482
thorax -4.67756 1.02174 1.58801
lowerneck -26.7923 -5.00289 -7.28665
upperneck 29.5037 -5.47023 4.7666
head 15.1525 -2.33111 2.12147
rclavicle 1.6847e-014 1.82882e-014
rhumerus -17.8543 13.8515 -86.9467
rradius 91.0025
rwrist 4.96764
rhand -30.9876 -42.94
rfingers 7.12502
rthumb -4.27117 -72.8769
lclavicle 1.6847e-014 1.82882e-014
lhumerus -16.8195 -33.2333 95.9943
lradius 85.0976
lwrist 50.5081
lhand -39.8686 13.783
lfingers 7.12502
lthumb -12.8411 43.368
rfemur 6.61464 -1.25072 15.6905
rtibia -6.36111e-015
rfoot -10.4611 -17.9623
rtoes 7.47698
lfemur -7.12249 -13.247 -11.2595
ltibia 22.5972
lfoot -20.5815 8.82542
ltoes -16.6227
202
root -9.448 17.9672 -16.3256 241.754 88.275 238.614
lowerback 1.86242 1.17826 1.56271
upperback -3.47675 1.81805 2.61385
thorax -4.67236 0.929485 1.71672
lowerneck -26.9954 -4.81248 -6.87431
upperneck 29.6293 -5.25161 4.44642
head 15.2084 -2.23672 1.96334
rclavicle 4.72114e-015 1.11319e-014
rhumerus -17.101 14.1823 -87.0086
rradius 90.5731
rwrist 5.1294
rhand -30.9699 -42.8189
rfingers 7.12502
rthumb -4.25406 -72.7562
lclavicle 4.72114e-015 1.11319e-014
lhumerus -16.2612 -32.6139 95.6741
lradius 84.8067
lwrist 50.3359
lhand -39.6094 13.6764
lfingers 7.12502
lthumb -12.5912 43.2769
rfemur 6.56929 -1.27906 15.6177
rtibia -2.38542e-014
rfoot -10.4879 -17.9487
rtoes 7.87445
lfemur -7.0825 -13.2859 -11.3314
ltibia 22.43
lfoot -20.5222 8.94075
ltoes -16.9653
203
root -9.44401 17.9705 -16.3228 239.352 88.265 236.146
lowerback 1.80876 0.985316 1.40497
upperback -3.49353 1.55373 2.64563
thorax -4.65888 0.804531 1.85454
lowerneck -27.1361 -4.5918 -6.46207
upperneck 29.6758 -5.01982 4.20027
head 15.2187 -2.12722 1.8385
rclavicle -7.95139e-015 -2.06736e-014
rhumerus -16.2981 14.6151 -87.1615
rradius 90.1015
rwrist 5.38464
rhand -30.9427 -42.7471
rfingers 7.12502
rthumb -4.22778 -72.6849
lclavicle -7.95139e-015 -2.06736e-014
lhumerus -15.7008 -31.8275 95.3424
lradius 84.4685
lwrist 50.1204
lhand -39.3038 13.6811
lfingers 7.12502
lthumb -12.2965 43.2995
rfemur 6.52316 -1.35368 15.5963
rtibia -2.22639e-014
rfoot -10.4997 -17.9439
rtoes 8.18892
lfemur -7.09479 -13.2822 -11.3439
ltibia 22.2988
lfoot -20.4121 9.01962
ltoes -17.667
